<mxfile host="app.diagrams.net" modified="2023-10-02T11:45:30.870Z" agent="Mozilla/5.0 (Windows NT 10.0; Win64; x64; rv:109.0) Gecko/20100101 Firefox/118.0" etag="hJ8rF3zPqGRsAPf2vu1d" version="22.0.0" type="github">
  <diagram name="Page-1" id="hpzKp1HkdorfMBpC40kj">
    <mxGraphModel dx="1434" dy="726" grid="1" gridSize="10" guides="1" tooltips="1" connect="1" arrows="1" fold="1" page="1" pageScale="1" pageWidth="827" pageHeight="1169" math="0" shadow="0">
      <root>
        <mxCell id="0" />
        <mxCell id="1" parent="0" />
        <mxCell id="CP5m4hqDr0bGd65ETZ_7-1" value="" style="rounded=0;whiteSpace=wrap;html=1;fillColor=none;strokeColor=#82b366;strokeWidth=3;" parent="1" vertex="1">
          <mxGeometry x="100" y="114" width="220" height="190" as="geometry" />
        </mxCell>
        <mxCell id="CP5m4hqDr0bGd65ETZ_7-2" value="WebSonic" style="rounded=0;whiteSpace=wrap;html=1;fillColor=#d5e8d4;strokeColor=#82b366;" parent="1" vertex="1">
          <mxGeometry x="229.99906976744194" y="270" width="88.48372093023256" height="32" as="geometry" />
        </mxCell>
        <mxCell id="CP5m4hqDr0bGd65ETZ_7-3" value="HTML5/CSS3 + Javascript 13 + Bootstrap 5.3" style="rounded=1;whiteSpace=wrap;html=1;" parent="1" vertex="1">
          <mxGeometry x="134" y="200" width="167" height="40" as="geometry" />
        </mxCell>
        <mxCell id="CP5m4hqDr0bGd65ETZ_7-4" value="PHP 8.2.11" style="rounded=1;whiteSpace=wrap;html=1;" parent="1" vertex="1">
          <mxGeometry x="135" y="124" width="160" height="34" as="geometry" />
        </mxCell>
        <mxCell id="CP5m4hqDr0bGd65ETZ_7-5" value="" style="endArrow=classic;startArrow=classic;html=1;rounded=0;exitX=0.25;exitY=0;exitDx=0;exitDy=0;entryX=0.25;entryY=1;entryDx=0;entryDy=0;" parent="1" source="CP5m4hqDr0bGd65ETZ_7-3" target="CP5m4hqDr0bGd65ETZ_7-4" edge="1">
          <mxGeometry width="50" height="50" relative="1" as="geometry">
            <mxPoint x="531" y="324" as="sourcePoint" />
            <mxPoint x="581" y="274" as="targetPoint" />
          </mxGeometry>
        </mxCell>
        <mxCell id="CP5m4hqDr0bGd65ETZ_7-10" value="MySql 8.1.0" style="shape=cylinder3;whiteSpace=wrap;html=1;boundedLbl=1;backgroundOutline=1;size=15;" parent="1" vertex="1">
          <mxGeometry x="345" y="215" width="77" height="70" as="geometry" />
        </mxCell>
        <mxCell id="CP5m4hqDr0bGd65ETZ_7-11" value="" style="endArrow=none;html=1;rounded=0;entryX=0;entryY=0;entryDx=0;entryDy=45;entryPerimeter=0;endFill=0;startArrow=classic;startFill=1;exitX=0;exitY=0.5;exitDx=0;exitDy=0;" parent="1" source="CP5m4hqDr0bGd65ETZ_7-4" target="CP5m4hqDr0bGd65ETZ_7-10" edge="1">
          <mxGeometry width="50" height="50" relative="1" as="geometry">
            <mxPoint x="695" y="460" as="sourcePoint" />
            <mxPoint x="745" y="410" as="targetPoint" />
            <Array as="points">
              <mxPoint x="115" y="140" />
              <mxPoint x="115" y="260" />
            </Array>
          </mxGeometry>
        </mxCell>
        <mxCell id="CP5m4hqDr0bGd65ETZ_7-12" value="" style="endArrow=classic;html=1;rounded=0;entryX=0;entryY=0.5;entryDx=0;entryDy=0;startArrow=none;startFill=0;endFill=1;" parent="1" target="CP5m4hqDr0bGd65ETZ_7-13" edge="1">
          <mxGeometry width="50" height="50" relative="1" as="geometry">
            <mxPoint x="175" y="180" as="sourcePoint" />
            <mxPoint x="359" y="177" as="targetPoint" />
          </mxGeometry>
        </mxCell>
        <mxCell id="CP5m4hqDr0bGd65ETZ_7-13" value="Apache 2.4.57" style="rounded=1;whiteSpace=wrap;html=1;" parent="1" vertex="1">
          <mxGeometry x="345" y="165" width="120" height="30" as="geometry" />
        </mxCell>
        <mxCell id="KtvWWZHXQBkpcBaIw-3Y-1" value="" style="rounded=0;whiteSpace=wrap;html=1;fillColor=none;strokeColor=#b85450;strokeWidth=3;" vertex="1" parent="1">
          <mxGeometry x="330" y="114" width="220" height="190" as="geometry" />
        </mxCell>
        <mxCell id="KtvWWZHXQBkpcBaIw-3Y-2" value="Client" style="rounded=0;whiteSpace=wrap;html=1;fillColor=#f8cecc;strokeColor=#b85450;" vertex="1" parent="1">
          <mxGeometry x="459.99906976744194" y="270" width="88.48372093023256" height="32" as="geometry" />
        </mxCell>
      </root>
    </mxGraphModel>
  </diagram>
</mxfile>
